#tb 0: 1/25
#media_type 0: video
#codec_id 0: rawvideo
#dimensions 0: 176x288
#sar 0: 0/1
0,          0,          0,        1,   152064, 0x7dc98468
0,          1,          1,        1,   152064, 0xf72db6c9
0,          2,          2,        1,   152064, 0x1630f53f
0,          3,          3,        1,   152064, 0xc1765599
0,          4,          4,        1,   152064, 0x12e35db1
